<?xml version="1.0" encoding="utf-8"?>
<!-- Generator: Adobe Illustrator 16.0.0, SVG Export Plug-In . SVG Version: 6.00 Build 0)  -->
<!DOCTYPE svg PUBLIC "-//W3C//DTD SVG 1.1//EN" "http://www.w3.org/Graphics/SVG/1.1/DTD/svg11.dtd">
<svg version="1.1" xmlns="http://www.w3.org/2000/svg" xmlns:xlink="http://www.w3.org/1999/xlink" x="0px" y="0px" width="125px"
	 height="40px" viewBox="0 0 125 40" enable-background="new 0 0 125 40" xml:space="preserve">
<g id="Layer_1">
	<circle opacity="0.5" fill="#00B1F8" cx="10.29" cy="20.424" r="4.599"/>
	<circle opacity="0.6" fill="#FF58C4" cx="6.867" cy="22.992" r="4.599"/>
	<path d="M27.615,20.369c0.124,1.094,0.956,1.756,1.988,1.756c0.924,0,1.524-0.432,1.986-1.001l1.325,1.001
		c-0.863,1.063-1.957,1.478-3.128,1.478c-2.233,0-4.019-1.556-4.019-3.881c0-2.325,1.785-3.881,4.019-3.881
		c2.065,0,3.467,1.448,3.467,4.019v0.508H27.615z M31.405,18.983c-0.016-1.077-0.724-1.755-1.879-1.755
		c-1.094,0-1.772,0.693-1.911,1.755H31.405z"/>
	<path d="M34.979,16.027h1.756v1.186h0.031c0.338-0.74,1.032-1.371,2.262-1.371c1.988,0,2.695,1.401,2.695,2.91v4.667h-1.847v-3.743
		c0-0.816-0.063-2.171-1.357-2.171c-1.216,0-1.692,0.893-1.692,1.878v4.035h-1.848V16.027z"/>
	<path d="M43.819,16.027h1.756v1.186h0.031c0.338-0.74,1.032-1.371,2.264-1.371c1.987,0,2.696,1.401,2.696,2.91v4.667h-1.849v-3.743
		c0-0.816-0.063-2.171-1.354-2.171c-1.219,0-1.695,0.893-1.695,1.878v4.035h-1.849V16.027z"/>
	<path d="M51.66,16.027h2.032l2.063,5.128h0.031l1.849-5.128h1.926l-3.496,8.979c-0.539,1.386-1.187,2.11-2.819,2.11
		c-0.477,0-0.954-0.061-1.416-0.185l0.23-1.664c0.293,0.108,0.615,0.186,0.94,0.186c0.908,0,1.154-0.324,1.463-1.094l0.354-0.878
		L51.66,16.027z"/>
	<path d="M65.878,17.597h-1.525v-1.57h1.525v-1.048c0-2.048,0.462-3.388,2.757-3.388c0.399,0,0.785,0.031,1.171,0.108l-0.125,1.571
		c-0.261-0.062-0.508-0.108-0.77-0.108c-1.032,0-1.186,0.708-1.186,1.525v1.34h1.71v1.57h-1.71v5.822h-1.848V17.597z M71.56,12.407
		c0.679,0,1.201,0.477,1.201,1.109c0,0.631-0.522,1.109-1.201,1.109c-0.678,0-1.171-0.524-1.171-1.109
		C70.389,12.931,70.882,12.407,71.56,12.407z M70.636,16.027h1.848v7.392h-1.848V16.027z"/>
	<path d="M74.348,16.027h1.757v1.186h0.03c0.339-0.74,1.032-1.371,2.265-1.371c1.986,0,2.695,1.401,2.695,2.91v4.667h-1.849v-3.743
		c0-0.816-0.062-2.171-1.354-2.171c-1.217,0-1.694,0.893-1.694,1.878v4.035h-1.85V16.027z"/>
	<path d="M87.811,22.403h-0.047c-0.524,0.832-1.386,1.201-2.371,1.201c-1.372,0-2.695-0.754-2.695-2.217
		c0-2.403,2.804-2.573,4.65-2.573h0.463v-0.2c0-0.909-0.708-1.386-1.695-1.386c-0.769,0-1.478,0.308-1.971,0.77l-0.97-0.97
		c0.815-0.832,1.971-1.186,3.142-1.186c3.156,0,3.156,2.279,3.156,3.326v4.251h-1.662V22.403z M87.702,20.107h-0.386
		c-1.016,0-2.771,0.077-2.771,1.14c0,0.678,0.693,0.971,1.294,0.971c1.264,0,1.863-0.663,1.863-1.694V20.107z"/>
	<path d="M91.462,16.027h1.755v1.186h0.031c0.339-0.74,1.032-1.371,2.264-1.371c1.987,0,2.695,1.401,2.695,2.91v4.667H96.36v-3.743
		c0-0.816-0.064-2.171-1.356-2.171c-1.218,0-1.694,0.893-1.694,1.878v4.035h-1.848V16.027z"/>
	<path d="M105.354,18.244c-0.431-0.446-0.909-0.738-1.401-0.738c-1.355,0-2.172,1.062-2.172,2.217c0,1.155,0.816,2.217,2.172,2.217
		c0.569,0,1.093-0.246,1.433-0.692l1.231,1.324c-0.754,0.755-2.018,1.032-2.664,1.032c-2.232,0-4.019-1.556-4.019-3.881
		c0-2.325,1.786-3.881,4.019-3.881c0.94,0,1.972,0.339,2.68,1.125L105.354,18.244z"/>
	<path d="M108.666,12.407c0.679,0,1.2,0.477,1.2,1.109c0,0.631-0.521,1.109-1.2,1.109c-0.678,0-1.171-0.524-1.171-1.109
		C107.495,12.931,107.988,12.407,108.666,12.407z M107.757,16.027h1.849v7.392h-1.849V16.027z"/>
	<path d="M116.351,22.403h-0.045c-0.523,0.832-1.387,1.201-2.372,1.201c-1.37,0-2.695-0.754-2.695-2.217
		c0-2.403,2.803-2.573,4.651-2.573h0.461v-0.2c0-0.909-0.707-1.386-1.692-1.386c-0.771,0-1.48,0.308-1.972,0.77l-0.971-0.97
		c0.817-0.832,1.973-1.186,3.142-1.186c3.157,0,3.157,2.279,3.157,3.326v4.251h-1.664V22.403z M116.244,20.107h-0.386
		c-1.017,0-2.771,0.077-2.771,1.14c0,0.678,0.692,0.971,1.293,0.971c1.264,0,1.864-0.663,1.864-1.694V20.107z"/>
	<path d="M120.034,11.775h1.847v11.644h-1.847V11.775z"/>
	<path d="M20.762,15.842c-0.025,0-0.054,0.003-0.078,0.003l0.022-0.021c-2.147,0-4.348,1.687-4.471,3.808L16,19.657V28h1v-6h1.329
		c0.384,0,1.123,1.364,2.51,1.364c2.11,0,3.572-1.574,3.572-3.762C24.411,17.417,23.041,15.842,20.762,15.842z M20.393,21.94
		c-1.356,0-2.172-1.063-2.172-2.217c0-1.155,0.815-2.217,2.172-2.217c1.354,0,2.172,1.062,2.172,2.217
		C22.564,20.877,21.747,21.94,20.393,21.94z"/>
</g>
<g id="Layer_2">
</g>
</svg>
